<svg width="160" height="43" viewBox="0 0 160 43" fill="none" xmlns="http://www.w3.org/2000/svg">
<path d="M15.472 35.768C12.432 35.768 9.76 35.064 7.456 33.656C5.152 32.216 3.36 30.168 2.08 27.512C0.8 24.856 0.16 21.688 0.16 18.008C0.16 14.328 0.8 11.16 2.08 8.504C3.36 5.816 5.152 3.752 7.456 2.312C9.76 0.871999 12.432 0.151999 15.472 0.151999C19.6 0.151999 22.8 1.192 25.072 3.272C27.344 5.352 28.832 8.184 29.536 11.768L25.168 12.056C24.688 9.624 23.664 7.704 22.096 6.296C20.528 4.888 18.32 4.184 15.472 4.184C13.296 4.184 11.376 4.744 9.712 5.864C8.08 6.952 6.8 8.536 5.872 10.616C4.944 12.664 4.48 15.128 4.48 18.008C4.48 20.888 4.944 23.352 5.872 25.4C6.8 27.448 8.08 29.016 9.712 30.104C11.376 31.192 13.296 31.736 15.472 31.736C18.448 31.736 20.752 30.968 22.384 29.432C24.016 27.864 25.04 25.752 25.456 23.096L29.824 23.384C29.408 25.848 28.592 28.008 27.376 29.864C26.16 31.72 24.544 33.176 22.528 34.232C20.544 35.256 18.192 35.768 15.472 35.768ZM42.2665 35.576C39.6425 35.576 37.5465 34.968 35.9785 33.752C34.4425 32.536 33.6745 30.84 33.6745 28.664C33.6745 26.488 34.3145 24.776 35.5945 23.528C36.8745 22.28 38.9065 21.4 41.6905 20.888L50.7145 19.208C50.7145 17.064 50.2025 15.464 49.1785 14.408C48.1865 13.352 46.6825 12.824 44.6665 12.824C42.9065 12.824 41.5145 13.224 40.4905 14.024C39.4665 14.792 38.7625 15.912 38.3785 17.384L34.1065 17.048C34.5865 14.648 35.7385 12.712 37.5625 11.24C39.4185 9.736 41.7865 8.984 44.6665 8.984C47.9305 8.984 50.4265 9.912 52.1545 11.768C53.8825 13.592 54.7465 16.12 54.7465 19.352V29.864C54.7465 30.44 54.8425 30.856 55.0345 31.112C55.2585 31.336 55.6105 31.448 56.0905 31.448H57.0985V35C56.9705 35.032 56.7625 35.048 56.4745 35.048C56.1865 35.08 55.8825 35.096 55.5625 35.096C54.4105 35.096 53.4665 34.92 52.7305 34.568C52.0265 34.184 51.5145 33.608 51.1945 32.84C50.8745 32.04 50.7145 31 50.7145 29.72L51.1945 29.816C50.9705 30.904 50.4265 31.896 49.5625 32.792C48.6985 33.656 47.6265 34.344 46.3465 34.856C45.0665 35.336 43.7065 35.576 42.2665 35.576ZM42.6505 32.024C44.3465 32.024 45.7865 31.704 46.9705 31.064C48.1865 30.392 49.1145 29.496 49.7545 28.376C50.3945 27.224 50.7145 25.944 50.7145 24.536V22.712L42.4585 24.248C40.7305 24.568 39.5305 25.064 38.8585 25.736C38.2185 26.376 37.8985 27.224 37.8985 28.28C37.8985 29.464 38.3145 30.392 39.1465 31.064C40.0105 31.704 41.1785 32.024 42.6505 32.024ZM70.8228 35.576C68.5508 35.576 66.6148 35.208 65.0148 34.472C63.4468 33.736 62.2148 32.728 61.3188 31.448C60.4548 30.136 59.9588 28.648 59.8308 26.984L64.0547 26.696C64.3108 28.232 64.9668 29.464 66.0228 30.392C67.0788 31.288 68.6788 31.736 70.8228 31.736C72.5508 31.736 73.9268 31.464 74.9508 30.92C76.0068 30.344 76.5348 29.432 76.5348 28.184C76.5348 27.512 76.3748 26.952 76.0548 26.504C75.7348 26.056 75.1108 25.672 74.1828 25.352C73.2548 25 71.8788 24.664 70.0547 24.344C67.6228 23.896 65.7028 23.352 64.2948 22.712C62.9188 22.04 61.9268 21.224 61.3188 20.264C60.7428 19.272 60.4548 18.104 60.4548 16.76C60.4548 14.488 61.2868 12.632 62.9508 11.192C64.6148 9.72 66.9828 8.984 70.0547 8.984C72.1348 8.984 73.8788 9.368 75.2868 10.136C76.7268 10.872 77.8468 11.864 78.6468 13.112C79.4788 14.328 80.0228 15.672 80.2788 17.144L76.0548 17.432C75.8628 16.536 75.5108 15.752 74.9988 15.08C74.4868 14.376 73.8148 13.832 72.9828 13.448C72.1508 13.032 71.1588 12.824 70.0068 12.824C68.1828 12.824 66.8388 13.176 65.9748 13.88C65.1108 14.584 64.6788 15.48 64.6788 16.568C64.6788 17.4 64.8708 18.088 65.2548 18.632C65.6708 19.144 66.3268 19.576 67.2228 19.928C68.1188 20.248 69.3188 20.536 70.8228 20.792C73.4148 21.24 75.4308 21.784 76.8708 22.424C78.3108 23.064 79.3188 23.848 79.8948 24.776C80.4708 25.704 80.7588 26.84 80.7588 28.184C80.7588 29.752 80.3108 31.096 79.4148 32.216C78.5508 33.304 77.3668 34.136 75.8628 34.712C74.3908 35.288 72.7108 35.576 70.8228 35.576ZM86.2619 42.2V9.56H90.0059L90.1019 15.032L89.5259 14.744C90.1659 12.856 91.2219 11.432 92.6939 10.472C94.1979 9.48 95.9259 8.984 97.8779 8.984C100.406 8.984 102.47 9.608 104.07 10.856C105.702 12.104 106.902 13.736 107.67 15.752C108.47 17.768 108.87 19.944 108.87 22.28C108.87 24.616 108.47 26.792 107.67 28.808C106.902 30.824 105.702 32.456 104.07 33.704C102.47 34.952 100.406 35.576 97.8779 35.576C96.5659 35.576 95.3339 35.352 94.1819 34.904C93.0619 34.456 92.1019 33.832 91.3019 33.032C90.5339 32.232 90.0059 31.288 89.7179 30.2L90.2939 29.528V42.2H86.2619ZM97.4939 31.736C99.7019 31.736 101.446 30.904 102.726 29.24C104.006 27.576 104.646 25.256 104.646 22.28C104.646 19.304 104.006 16.984 102.726 15.32C101.446 13.656 99.7019 12.824 97.4939 12.824C96.0219 12.824 94.7419 13.176 93.6539 13.88C92.5979 14.584 91.7659 15.64 91.1579 17.048C90.5819 18.456 90.2939 20.2 90.2939 22.28C90.2939 24.36 90.5819 26.104 91.1579 27.512C91.7339 28.92 92.5659 29.976 93.6539 30.68C94.7419 31.384 96.0219 31.736 97.4939 31.736ZM124.276 35.576C121.876 35.576 119.796 35.032 118.036 33.944C116.308 32.856 114.964 31.32 114.004 29.336C113.076 27.32 112.612 24.968 112.612 22.28C112.612 19.592 113.076 17.256 114.004 15.272C114.964 13.288 116.292 11.752 117.988 10.664C119.716 9.544 121.748 8.984 124.084 8.984C126.292 8.984 128.244 9.512 129.94 10.568C131.636 11.592 132.948 13.096 133.876 15.08C134.836 17.064 135.316 19.48 135.316 22.328V23.528H116.836C116.996 26.248 117.716 28.296 118.996 29.672C120.308 31.048 122.068 31.736 124.276 31.736C125.94 31.736 127.3 31.352 128.356 30.584C129.444 29.784 130.196 28.744 130.612 27.464L134.932 27.8C134.26 30.072 132.98 31.944 131.092 33.416C129.236 34.856 126.964 35.576 124.276 35.576ZM116.836 19.976H130.9C130.708 17.512 129.988 15.704 128.74 14.552C127.524 13.4 125.972 12.824 124.084 12.824C122.132 12.824 120.516 13.432 119.236 14.648C117.988 15.832 117.188 17.608 116.836 19.976ZM140.778 35V9.56H144.33L144.522 15.992L144.138 15.848C144.458 13.672 145.146 12.088 146.202 11.096C147.29 10.072 148.73 9.56 150.522 9.56H153.018V13.4H150.57C149.29 13.4 148.218 13.64 147.354 14.12C146.522 14.568 145.882 15.256 145.434 16.184C145.018 17.08 144.81 18.232 144.81 19.64V35H140.778Z" fill="white"/>
<path d="M154.378 35V29.576H159.802V35H154.378Z" fill="#40FF00"/>
</svg>
