<svg width="211" height="36" viewBox="0 0 211 36" fill="none" xmlns="http://www.w3.org/2000/svg">
<path d="M14.128 35.768C11.504 35.768 9.216 35.272 7.264 34.28C5.312 33.288 3.76 31.928 2.608 30.2C1.488 28.44 0.832 26.408 0.64 24.104L4.96 23.816C5.184 25.512 5.68 26.952 6.448 28.136C7.216 29.32 8.24 30.216 9.52 30.824C10.832 31.432 12.4 31.736 14.224 31.736C15.824 31.736 17.184 31.528 18.304 31.112C19.424 30.696 20.272 30.088 20.848 29.288C21.456 28.488 21.76 27.512 21.76 26.36C21.76 25.304 21.504 24.376 20.992 23.576C20.512 22.744 19.568 21.992 18.16 21.32C16.784 20.616 14.736 19.928 12.016 19.256C9.392 18.584 7.296 17.848 5.728 17.048C4.192 16.248 3.072 15.272 2.368 14.12C1.696 12.968 1.36 11.544 1.36 9.848C1.36 7.928 1.808 6.248 2.704 4.808C3.632 3.336 4.944 2.2 6.64 1.4C8.336 0.567999 10.352 0.151999 12.688 0.151999C15.184 0.151999 17.328 0.631999 19.12 1.592C20.912 2.52 22.336 3.8 23.392 5.432C24.448 7.064 25.104 8.92 25.36 11L21.04 11.288C20.848 9.912 20.4 8.696 19.696 7.64C19.024 6.552 18.096 5.704 16.912 5.096C15.728 4.488 14.288 4.184 12.592 4.184C10.48 4.184 8.8 4.696 7.552 5.72C6.304 6.712 5.68 8.024 5.68 9.656C5.68 10.712 5.92 11.592 6.4 12.296C6.912 12.968 7.808 13.576 9.088 14.12C10.368 14.632 12.208 15.192 14.608 15.8C17.456 16.504 19.712 17.352 21.376 18.344C23.072 19.304 24.272 20.424 24.976 21.704C25.712 22.984 26.08 24.44 26.08 26.072C26.08 28.056 25.568 29.784 24.544 31.256C23.52 32.696 22.112 33.816 20.32 34.616C18.528 35.384 16.464 35.768 14.128 35.768ZM39.8759 35.576C37.2519 35.576 35.1559 34.968 33.5879 33.752C32.0519 32.536 31.2839 30.84 31.2839 28.664C31.2839 26.488 31.9239 24.776 33.2039 23.528C34.4839 22.28 36.5159 21.4 39.2999 20.888L48.3239 19.208C48.3239 17.064 47.8119 15.464 46.7879 14.408C45.7959 13.352 44.2919 12.824 42.2759 12.824C40.5159 12.824 39.1239 13.224 38.0999 14.024C37.0759 14.792 36.3719 15.912 35.9879 17.384L31.7159 17.048C32.1959 14.648 33.3479 12.712 35.1719 11.24C37.0279 9.736 39.3959 8.984 42.2759 8.984C45.5399 8.984 48.0359 9.912 49.7639 11.768C51.4919 13.592 52.3559 16.12 52.3559 19.352V29.864C52.3559 30.44 52.4519 30.856 52.6439 31.112C52.8679 31.336 53.2199 31.448 53.6999 31.448H54.7079V35C54.5799 35.032 54.3719 35.048 54.0839 35.048C53.7959 35.08 53.4919 35.096 53.1719 35.096C52.0199 35.096 51.0759 34.92 50.3399 34.568C49.6359 34.184 49.1239 33.608 48.8039 32.84C48.4839 32.04 48.3239 31 48.3239 29.72L48.8039 29.816C48.5799 30.904 48.0359 31.896 47.1719 32.792C46.3079 33.656 45.2359 34.344 43.9559 34.856C42.6759 35.336 41.3159 35.576 39.8759 35.576ZM40.2599 32.024C41.9559 32.024 43.3959 31.704 44.5799 31.064C45.7959 30.392 46.7239 29.496 47.3639 28.376C48.0039 27.224 48.3239 25.944 48.3239 24.536V22.712L40.0679 24.248C38.3399 24.568 37.1399 25.064 36.4679 25.736C35.8279 26.376 35.5079 27.224 35.5079 28.28C35.5079 29.464 35.9239 30.392 36.7559 31.064C37.6199 31.704 38.7879 32.024 40.2599 32.024ZM63.9726 35C62.5006 35 61.3006 34.616 60.3726 33.848C59.4446 33.08 58.9806 31.864 58.9806 30.2V0.919998H63.0126V29.864C63.0126 30.376 63.1406 30.776 63.3966 31.064C63.6846 31.32 64.0846 31.448 64.5966 31.448H66.8046V35H63.9726ZM71.59 35V9.56H75.286L75.43 15.992L74.854 15.8C75.142 14.392 75.638 13.192 76.342 12.2C77.078 11.176 77.974 10.392 79.03 9.848C80.086 9.272 81.254 8.984 82.534 8.984C84.742 8.984 86.534 9.592 87.91 10.808C89.318 12.024 90.198 13.72 90.55 15.896L89.782 15.848C90.038 14.376 90.502 13.144 91.174 12.152C91.878 11.128 92.774 10.344 93.862 9.8C94.95 9.256 96.198 8.984 97.606 8.984C99.43 8.984 100.966 9.368 102.214 10.136C103.462 10.872 104.406 11.96 105.046 13.4C105.686 14.84 106.006 16.584 106.006 18.632V35H101.974V19.496C101.974 17.192 101.526 15.464 100.63 14.312C99.734 13.128 98.406 12.536 96.646 12.536C95.462 12.536 94.422 12.824 93.526 13.4C92.662 13.976 91.99 14.808 91.51 15.896C91.03 16.952 90.79 18.248 90.79 19.784V35H86.758V19.784C86.758 17.512 86.358 15.736 85.558 14.456C84.758 13.176 83.414 12.536 81.526 12.536C80.342 12.536 79.302 12.824 78.406 13.4C77.542 13.976 76.854 14.808 76.342 15.896C75.862 16.984 75.622 18.28 75.622 19.784V35H71.59ZM113.215 35V9.56H117.247V35H113.215ZM113.119 5.576V0.871999H117.343V5.576H113.119ZM125.403 35V9.56H129.099L129.243 16.04L128.763 15.608C129.083 14.104 129.643 12.872 130.443 11.912C131.243 10.92 132.203 10.184 133.323 9.704C134.475 9.224 135.707 8.984 137.019 8.984C138.971 8.984 140.571 9.416 141.819 10.28C143.099 11.144 144.043 12.312 144.651 13.784C145.291 15.224 145.611 16.84 145.611 18.632V35H141.579V19.784C141.579 18.216 141.387 16.904 141.003 15.848C140.651 14.76 140.075 13.944 139.275 13.4C138.475 12.824 137.435 12.536 136.155 12.536C134.203 12.536 132.587 13.16 131.307 14.408C130.059 15.624 129.435 17.416 129.435 19.784V35H125.403ZM162.667 35.576C160.267 35.576 158.187 35.032 156.427 33.944C154.699 32.856 153.355 31.32 152.395 29.336C151.467 27.32 151.003 24.968 151.003 22.28C151.003 19.592 151.467 17.256 152.395 15.272C153.355 13.288 154.683 11.752 156.379 10.664C158.107 9.544 160.139 8.984 162.475 8.984C164.683 8.984 166.635 9.512 168.331 10.568C170.027 11.592 171.339 13.096 172.267 15.08C173.227 17.064 173.707 19.48 173.707 22.328V23.528H155.227C155.387 26.248 156.107 28.296 157.387 29.672C158.699 31.048 160.459 31.736 162.667 31.736C164.331 31.736 165.691 31.352 166.747 30.584C167.835 29.784 168.587 28.744 169.003 27.464L173.323 27.8C172.651 30.072 171.371 31.944 169.483 33.416C167.627 34.856 165.355 35.576 162.667 35.576ZM155.227 19.976H169.291C169.099 17.512 168.379 15.704 167.131 14.552C165.915 13.4 164.363 12.824 162.475 12.824C160.523 12.824 158.907 13.432 157.627 14.648C156.379 15.832 155.579 17.608 155.227 19.976ZM179.168 35V9.56H182.864L183.008 16.04L182.528 15.608C182.848 14.104 183.408 12.872 184.208 11.912C185.008 10.92 185.968 10.184 187.088 9.704C188.24 9.224 189.472 8.984 190.784 8.984C192.736 8.984 194.336 9.416 195.584 10.28C196.864 11.144 197.808 12.312 198.416 13.784C199.056 15.224 199.376 16.84 199.376 18.632V35H195.344V19.784C195.344 18.216 195.152 16.904 194.768 15.848C194.416 14.76 193.84 13.944 193.04 13.4C192.24 12.824 191.2 12.536 189.92 12.536C187.968 12.536 186.352 13.16 185.072 14.408C183.824 15.624 183.2 17.416 183.2 19.784V35H179.168Z" fill="white"/>
<path d="M205.331 35V29.576H210.755V35H205.331Z" fill="#40FF00"/>
</svg>
